<svg xmlns="http://www.w3.org/2000/svg" viewBox="0 0 512 512">
  <defs>
    <linearGradient id="bg" x1="0" y1="0" x2="1" y2="1">
      <stop offset="0" stop-color="#065f46"/>
      <stop offset="1" stop-color="#064e3b"/>
    </linearGradient>
    <linearGradient id="gold" x1="0" y1="0" x2="1" y2="1">
      <stop offset="0" stop-color="#fbbf24"/>
      <stop offset="1" stop-color="#f59e0b"/>
    </linearGradient>
  </defs>
  <rect width="512" height="512" rx="96" fill="url(#bg)"/>
  <!-- Croissant -->
  <path fill="url(#gold)" d="M310 96c-88 0-160 72-160 160s72 160 160 160c26 0 51-6 73-18-14 4-28 6-43 6-88 0-160-66-160-148s72-148 160-148c15 0 29 2 43 6-22-12-47-18-73-18z"/>
  <!-- Étoile -->
  <path fill="url(#gold)" d="M352 218l14 34 36 3-27 24 8 35-31-19-31 19 8-35-27-24 36-3z"/>
  <!-- Livre ouvert -->
  <path fill="#ecfdf5" d="M96 340c40-14 76-14 112 4 36-18 72-18 112-4v66c-40-14-76-14-112 4-36-18-72-18-112-4z" opacity="0.95"/>
  <path fill="none" stroke="#065f46" stroke-width="8" d="M208 344v66"/>
</svg>
